<?xml version="1.0" encoding="utf-8"?>
<!-- Generator: Adobe Illustrator 18.1.1, SVG Export Plug-In . SVG Version: 6.00 Build 0)  -->
<svg version="1.1" id="Layer_2" xmlns="http://www.w3.org/2000/svg" xmlns:xlink="http://www.w3.org/1999/xlink" x="0px" y="0px"
	 width="60px" height="88px" viewBox="0 0 60 88" enable-background="new 0 0 60 88" xml:space="preserve">
<g>
	<g>
		<path fill="#FFFFFF" d="M43.4,70.9h-1.6v8.5h2v-5.9c0.5-0.4,1.3-1,2.2-1c0.8,0,1.2,0.6,1.2,1.8v5h2v-5.6c0-2.2-1.4-3-2.6-3
			c-1,0-1.9,0.3-2.9,1.1L43.4,70.9L43.4,70.9z"/>
		<polygon fill="#FFFFFF" points="27.6,79.4 24.6,75.1 27.6,70.9 25.3,70.9 23.5,73.5 21.7,70.9 19.5,70.9 22.4,75.1 19.4,79.4 
			21.7,79.4 23.5,76.7 25.4,79.4 27.6,79.4 		"/>
		<polygon fill="#FFFFFF" points="12.1,69.4 12.7,67.6 6,67.6 6,79.4 8,79.4 8,74.2 11.1,74.2 11.7,72.5 8,72.5 8,69.4 12.1,69.4 		
			"/>
		<path fill="#FFFFFF" d="M28.3,72.5v4c0,2.2,1.4,3,2.6,3c0.5,0,1-0.1,1.4-0.3l0.7-2c-0.4,0.3-1,0.5-1.5,0.5c-0.8,0-1.2-0.6-1.2-1.8
			v-3.4c1,0,1.9,0,1.9,0l0.5-1.6h-2.4v-2.3l-2,1v1.2l-1.1,1.6H28.3L28.3,72.5z"/>
		<path fill="#FFFFFF" d="M55.6,71.2c-0.8-0.3-1.5-0.5-2.4-0.5c-1.9,0-3.1,1-3.1,2.5c0,1.7,1.3,2.2,2.3,2.6c0.8,0.3,1.5,0.6,1.5,1.3
			c0,0.6-0.6,0.9-1.4,0.9c-0.8,0-1.5-0.3-2-0.6L50,79c0.8,0.4,1.6,0.6,2.6,0.6c2.1,0,3.4-1,3.4-2.6c0-1.7-1.4-2.2-2.4-2.7
			c-0.8-0.3-1.4-0.6-1.4-1.2c0-0.6,0.7-0.7,1.2-0.7c0.8,0,1.6,0.2,2.3,0.6V71.2L55.6,71.2z"/>
		<path fill="#FFFFFF" d="M37,70.7c-2.6,0-4.1,2-4.1,4.5c0,2.5,1.5,4.4,4.1,4.4c2.6,0,4.1-1.9,4.1-4.4C41.1,72.6,39.6,70.7,37,70.7
			L37,70.7z M37,77.9c-1.5,0-2.1-1.5-2.1-2.8c0-1.3,0.5-2.8,2.1-2.8c1.6,0,2.1,1.4,2.1,2.8C39.1,76.5,38.5,77.9,37,77.9L37,77.9z"/>
		<path fill="#FFFFFF" d="M16,70.7c-2.6,0-4.1,2-4.1,4.5c0,2.5,1.5,4.4,4.1,4.4c2.6,0,4.2-1.9,4.2-4.4C20.1,72.6,18.5,70.7,16,70.7
			L16,70.7z M16,77.9c-1.5,0-2.1-1.5-2.1-2.8c0-1.3,0.5-2.8,2.1-2.8c1.6,0,2.1,1.4,2.1,2.8C18.1,76.5,17.5,77.9,16,77.9L16,77.9z"/>
	</g>
</g>
<g>
	<g>
		<polygon fill="#FAE922" points="22.8,21.6 22.8,52.9 29.6,52.9 29.6,39.9 34.9,39.9 37.6,33.5 29.6,33.5 29.6,27.6 37.4,27.6 
			40.5,21.6 22.8,21.6 		"/>
		<path fill="#FAE922" d="M31.1,11.4c-13.9,0-25.1,11.2-25.1,25.1c0,13.9,11.3,25.1,25.1,25.1c13.9,0,25.1-11.2,25.1-25.1
			C56.2,22.7,44.9,11.4,31.1,11.4z M31.1,58.8c-12.3,0-22.3-10-22.3-22.3c0-12.3,10-22.3,22.3-22.3c12.3,0,22.3,10,22.3,22.3
			C53.4,48.8,43.4,58.8,31.1,58.8z"/>
	</g>
</g>
<rect fill="#017163" width="60" height="88"/>
<g>
	<g>
		<path fill="#FFFFFF" d="M42.7,72.5h-1.4v7.6H43v-5.3c0.5-0.4,1.2-0.9,2-0.9c0.7,0,1.1,0.5,1.1,1.6v4.5h1.8v-5.1
			c0-2-1.3-2.7-2.3-2.7c-0.9,0-1.7,0.3-2.6,1L42.7,72.5L42.7,72.5z"/>
		<polygon fill="#FFFFFF" points="28.5,80.1 25.8,76.3 28.4,72.5 26.4,72.5 24.8,74.8 23.2,72.5 21.2,72.5 23.8,76.3 21.1,80.1 
			23.1,80.1 24.8,77.7 26.5,80.1 28.5,80.1 		"/>
		<polygon fill="#FFFFFF" points="14.6,71.1 15.1,69.6 9,69.6 9,80.1 10.8,80.1 10.8,75.5 13.6,75.5 14.2,73.9 10.8,73.9 10.8,71.1 
			14.6,71.1 		"/>
		<path fill="#FFFFFF" d="M29.1,73.9v3.6c0,2,1.3,2.7,2.3,2.7c0.4,0,0.9-0.1,1.3-0.2l0.6-1.8c-0.4,0.2-0.9,0.5-1.4,0.5
			c-0.7,0-1.1-0.5-1.1-1.6v-3.1c0.9,0,1.7,0,1.7,0l0.5-1.4h-2.2v-2l-1.8,0.9v1.1l-1,1.4H29.1L29.1,73.9z"/>
		<path fill="#FFFFFF" d="M53.7,72.7c-0.7-0.3-1.4-0.4-2.2-0.4c-1.7,0-2.8,0.9-2.8,2.2c0,1.5,1.2,2,2.1,2.4c0.7,0.3,1.3,0.5,1.3,1.1
			c0,0.5-0.5,0.8-1.3,0.8c-0.7,0-1.4-0.3-1.8-0.5l-0.5,1.4c0.7,0.3,1.5,0.5,2.3,0.5c1.9,0,3-0.9,3-2.4c0-1.5-1.2-2-2.2-2.4
			c-0.7-0.3-1.3-0.5-1.3-1c0-0.6,0.6-0.7,1.1-0.7c0.7,0,1.4,0.2,2.1,0.5V72.7L53.7,72.7z"/>
		<path fill="#FFFFFF" d="M36.9,72.3c-2.3,0-3.7,1.8-3.7,4c0,2.3,1.3,3.9,3.7,3.9c2.3,0,3.7-1.7,3.7-4
			C40.6,74.1,39.2,72.3,36.9,72.3L36.9,72.3z M36.9,78.8c-1.4,0-1.9-1.3-1.9-2.5c0-1.2,0.4-2.5,1.9-2.5c1.4,0,1.9,1.3,1.9,2.5
			C38.8,77.5,38.3,78.8,36.9,78.8L36.9,78.8z"/>
		<path fill="#FFFFFF" d="M18,72.3c-2.3,0-3.7,1.8-3.7,4c0,2.3,1.3,3.9,3.7,3.9c2.3,0,3.7-1.7,3.7-4C21.7,74.1,20.3,72.3,18,72.3
			L18,72.3z M18,78.8c-1.4,0-1.9-1.3-1.9-2.5c0-1.2,0.4-2.5,1.9-2.5c1.4,0,1.9,1.3,1.9,2.5C19.9,77.5,19.4,78.8,18,78.8L18,78.8z"/>
	</g>
</g>
<g>
	<g>
		<polygon fill="#FFF000" points="22.4,28.3 22.4,56 28.4,56 28.4,44.5 33.2,44.5 35.5,38.8 28.4,38.8 28.4,33.6 35.4,33.6 
			38.1,28.3 22.4,28.3 		"/>
		<path fill="#FFF000" d="M29.8,19.3c-12.3,0-22.2,9.9-22.2,22.2c0,12.3,10,22.2,22.2,22.2c12.3,0,22.2-9.9,22.2-22.2
			C52,29.2,42.1,19.3,29.8,19.3z M29.8,61.2C18.9,61.2,10,52.4,10,41.5c0-10.9,8.8-19.7,19.7-19.7c10.9,0,19.7,8.8,19.7,19.7
			C49.5,52.4,40.7,61.2,29.8,61.2z"/>
	</g>
</g>
</svg>
